<svg xmlns="http://www.w3.org/2000/svg" viewBox="0 0 1400 800" fill="none" role="img" aria-labelledby="title desc">
  <title id="title">Fluxo de produto de dados juridicos</title>
  <desc id="desc">Diagrama ilustrativo: fontes, staging, serving, analytics, apps e ML</desc>
  <defs>
    <linearGradient id="bg" x1="0" y1="0" x2="1" y2="0.3">
      <stop offset="0%" stop-color="#0c1c22"/>
      <stop offset="45%" stop-color="#123038"/>
      <stop offset="100%" stop-color="#1a5558"/>
    </linearGradient>
    <linearGradient id="node" x1="0" y1="0" x2="0" y2="1">
      <stop offset="0%" stop-color="#f7fafb" stop-opacity="0.18"/>
      <stop offset="100%" stop-color="#f7fafb" stop-opacity="0.08"/>
    </linearGradient>
    <linearGradient id="core" x1="0" y1="0" x2="1" y2="1">
      <stop offset="0%" stop-color="#2a9a9e"/>
      <stop offset="100%" stop-color="#1a6b6e"/>
    </linearGradient>
    <filter id="soft" x="-20%" y="-20%" width="140%" height="140%">
      <feGaussianBlur stdDeviation="24"/>
    </filter>
    <marker id="arrow" markerWidth="10" markerHeight="10" refX="8" refY="3" orient="auto">
      <path d="M0 0L8 3L0 6Z" fill="#d4b48a"/>
    </marker>
  </defs>

  <rect width="1400" height="800" fill="url(#bg)"/>
  <circle cx="1180" cy="160" r="220" fill="#3db5b8" opacity="0.22" filter="url(#soft)"/>
  <circle cx="200" cy="680" r="200" fill="#b8956a" opacity="0.12" filter="url(#soft)"/>

  <g stroke="#ffffff" stroke-opacity="0.07">
    <path d="M0 160H1400M0 320H1400M0 480H1400M0 640H1400"/>
    <path d="M140 0V800M280 0V800M420 0V800M560 0V800M700 0V800M840 0V800M980 0V800M1120 0V800M1260 0V800"/>
  </g>

  <g font-family="Segoe UI, Helvetica, Arial, sans-serif">
    <!-- Fontes -->
    <rect x="80" y="330" width="180" height="100" rx="12" fill="url(#node)" stroke="#d5e8e9" stroke-width="1.5"/>
    <text x="170" y="372" text-anchor="middle" fill="#b8dfe1" font-size="13" letter-spacing="2">FONTES</text>
    <text x="170" y="402" text-anchor="middle" fill="#ffffff" font-size="22" font-weight="700">Coleta</text>

    <path d="M270 380H330" stroke="#d4b48a" stroke-width="2.5" marker-end="url(#arrow)"/>

    <!-- Staging -->
    <rect x="340" y="330" width="180" height="100" rx="12" fill="url(#node)" stroke="#d5e8e9" stroke-width="1.5"/>
    <text x="430" y="372" text-anchor="middle" fill="#b8dfe1" font-size="13" letter-spacing="2">STAGING</text>
    <text x="430" y="402" text-anchor="middle" fill="#ffffff" font-size="22" font-weight="700">ETL / raw</text>

    <path d="M530 380H590" stroke="#d4b48a" stroke-width="2.5" marker-end="url(#arrow)"/>

    <!-- Serving -->
    <rect x="600" y="300" width="230" height="160" rx="14" fill="url(#core)" stroke="#e8f6f6" stroke-width="2"/>
    <text x="715" y="355" text-anchor="middle" fill="#e8f6f6" font-size="13" letter-spacing="2">SERVING</text>
    <text x="715" y="390" text-anchor="middle" fill="#ffffff" font-size="24" font-weight="700">API + banco</text>
    <text x="715" y="422" text-anchor="middle" fill="#d5e8e9" font-size="15">multi-tenant + RLS</text>

    <!-- branches -->
    <path d="M830 380H890M890 380V220H940M890 380V380H940M890 380V540H940" stroke="#d4b48a" stroke-width="2.5"/>
    <path d="M940 220H990" stroke="#d4b48a" stroke-width="2.5" marker-end="url(#arrow)"/>
    <path d="M940 380H990" stroke="#d4b48a" stroke-width="2.5" marker-end="url(#arrow)"/>
    <path d="M940 540H990" stroke="#d4b48a" stroke-width="2.5" marker-end="url(#arrow)"/>

    <rect x="1000" y="170" width="230" height="100" rx="12" fill="url(#node)" stroke="#d5e8e9" stroke-width="1.5"/>
    <text x="1115" y="212" text-anchor="middle" fill="#b8dfe1" font-size="13" letter-spacing="2">ANALYTICS</text>
    <text x="1115" y="242" text-anchor="middle" fill="#ffffff" font-size="22" font-weight="700">BI / metricas</text>

    <rect x="1000" y="330" width="230" height="100" rx="12" fill="url(#node)" stroke="#d5e8e9" stroke-width="1.5"/>
    <text x="1115" y="372" text-anchor="middle" fill="#b8dfe1" font-size="13" letter-spacing="2">APPS</text>
    <text x="1115" y="402" text-anchor="middle" fill="#ffffff" font-size="22" font-weight="700">Web / jornadas</text>

    <rect x="1000" y="490" width="230" height="100" rx="12" fill="url(#node)" stroke="#d5e8e9" stroke-width="1.5"/>
    <text x="1115" y="532" text-anchor="middle" fill="#b8dfe1" font-size="13" letter-spacing="2">IA</text>
    <text x="1115" y="562" text-anchor="middle" fill="#ffffff" font-size="22" font-weight="700">ML / busca</text>

    <text x="80" y="700" fill="#9ed0d2" font-size="14" letter-spacing="2.5">PRODUTO PROPRIO - CODIGO PRIVADO</text>
    <text x="80" y="742" fill="#ffffff" font-size="34" font-weight="700">Situacao Juridica</text>
  </g>
</svg>
