<svg xmlns="http://www.w3.org/2000/svg" viewBox="0 0 960 560" fill="none" role="img" aria-labelledby="t d">
  <title id="t">Preview ilustrativo JurisSync</title>
  <desc id="d">Interface ilustrativa de jurimetria com mapa e barras</desc>
  <rect width="960" height="560" rx="16" fill="#eef3f5"/>
  <rect x="20" y="20" width="920" height="520" rx="12" fill="#f7fafb" stroke="#132028" stroke-opacity="0.1"/>
  <rect x="20" y="20" width="920" height="56" rx="12" fill="#132028"/>
  <rect x="20" y="52" width="920" height="24" fill="#132028"/>
  <text x="44" y="55" fill="#d5e8e9" font-size="16" font-family="Segoe UI, Helvetica, Arial, sans-serif" font-weight="700">JurisSync · Jurimetria</text>
  <text x="780" y="55" fill="#b8956a" font-size="13" font-family="Segoe UI, Helvetica, Arial, sans-serif">Mock (demo)</text>

  <!-- map panel -->
  <rect x="48" y="100" width="420" height="400" rx="10" fill="#ffffff" stroke="#132028" stroke-opacity="0.1"/>
  <text x="68" y="132" fill="#132028" font-size="15" font-weight="700" font-family="Segoe UI, Helvetica, Arial, sans-serif">Processos por UF</text>
  <ellipse cx="250" cy="310" rx="140" ry="120" fill="#1a6b6e" fill-opacity="0.12" stroke="#1a6b6e" stroke-opacity="0.35"/>
  <path d="M180 250C210 220 280 210 320 250C350 280 340 340 300 370C260 400 190 390 170 340C155 305 160 270 180 250Z" fill="#1a6b6e" fill-opacity="0.35"/>
  <circle cx="220" cy="280" r="18" fill="#0f4f52"/>
  <circle cx="290" cy="300" r="12" fill="#1a6b6e"/>
  <circle cx="250" cy="350" r="9" fill="#b8956a"/>

  <!-- bars -->
  <rect x="500" y="100" width="400" height="400" rx="10" fill="#ffffff" stroke="#132028" stroke-opacity="0.1"/>
  <text x="520" y="132" fill="#132028" font-size="15" font-weight="700" font-family="Segoe UI, Helvetica, Arial, sans-serif">Por tribunal</text>
  <g font-family="Segoe UI, Helvetica, Arial, sans-serif" font-size="13" fill="#2a3d48">
    <text x="520" y="180">TJSP</text>
    <rect x="570" y="166" width="252" height="18" rx="4" fill="#1a6b6e"/>
    <text x="520" y="230">TJRJ</text>
    <rect x="570" y="216" width="168" height="18" rx="4" fill="#1a6b6e" fill-opacity="0.8"/>
    <text x="520" y="280">TJMG</text>
    <rect x="570" y="266" width="108" height="18" rx="4" fill="#1a6b6e" fill-opacity="0.65"/>
    <text x="520" y="330">TRF3</text>
    <rect x="570" y="316" width="72" height="18" rx="4" fill="#1a6b6e" fill-opacity="0.5"/>
    <text x="520" y="400" fill="#1a6b6e" font-weight="700">43 testes · cobertura ~90%</text>
    <text x="520" y="430" fill="#2a3d48">Preview ilustrativa do portfólio</text>
  </g>
</svg>
